:SAMPLES-PER-SECOND 30
:FULLY-SPECIFIED
:DEGREES
336
root  61.3283 38.4726 10.0288 -151.555 88.9534 -149.256
RightUpLeg  -12.2203 5.497 -5.89991
RightLeg  21.2388 6.72956 2.67587
RightFoot  -6.11921 -0.218468 3.87163
RightToes  -1.33073e-015 0 -3.6325e-017
Spine  17.7552 1.02789 1.88065
Spine1  11.9486 2.31919 -3.19454
HEad  -24.5121 0.290612 6.4596
LeftShoulder1  2.19778 -5.25958 -18.5275
LeftArm  -21.1712 -67.9097 -26.0626
LeftForeArm  -16.5338 -7.41551 -6.08148
LeftHand  -0.0179224 7.73849 1.11135
RightShoulder  1.14908 5.11092 5.57325
RightArm  -3.15758 69.2574 47.8053
RightForeArm  -27.4294 -5.73639 3.19551
RightHand  -0.710688 9.8668 -5.79098
LeftUpLeg  -15.9653 5.68997 1.76607
LeftLeg  16.9512 -4.51488 -1.25706
LeftFoot  2.99701 -0.31015 2.32202
LeftToes  -1.93726e-010 2.42366e-011 2.16268e-013
337
root  61.5781 38.6211 9.70882 -101.403 88.7845 -99.5525
RightUpLeg  -11.3584 2.49615 -4.84118
RightLeg  19.6963 4.66993 1.6447
RightFoot  -5.10309 -0.2788 4.46469
RightToes  -1.33073e-015 0 -3.6325e-017
Spine  17.8968 1.08532 2.81712
Spine1  12.2255 2.64816 -3.56729
HEad  -25.2613 0.547239 6.23116
LeftShoulder1  2.20315 -5.36818 -18.2603
LeftArm  -21.4355 -68.4117 -25.8643
LeftForeArm  -16.5825 -7.27222 -6.07914
LeftHand  -0.000963322 8.04499 1.76656
RightShoulder  1.1569 5.15518 5.60091
RightArm  -3.67787 69.572 47.0965
RightForeArm  -27.5204 -5.75531 3.32276
RightHand  -0.727039 10.9457 -5.56187
LeftUpLeg  -15.6276 6.68415 2.15098
LeftLeg  16.3702 -4.86575 -1.41484
LeftFoot  2.70839 -0.322201 2.48126
LeftToes  -1.93726e-010 2.42366e-011 2.16268e-013
338
root  61.8874 38.7526 9.47323 -102.17 88.2908 -101.538
RightUpLeg  -11.129 -0.899108 -4.20155
RightLeg  18.062 3.71137 1.13633
RightFoot  -4.74522 -0.34778 5.46845
RightToes  -1.33073e-015 0 -3.6325e-017
Spine  16.6475 1.01588 2.76922
Spine1  13.0773 2.40307 -3.02609
HEad  -26.1004 1.10083 5.71605
LeftShoulder1  2.169 -5.22574 -18.2749
LeftArm  -21.9743 -68.9568 -25.1639
LeftForeArm  -16.0952 -7.00867 -6.10621
LeftHand  -0.000124782 8.05873 1.80006
RightShoulder  1.15873 5.47607 5.08199
RightArm  -3.82671 69.6819 46.6385
RightForeArm  -28.3017 -5.76991 3.55341
RightHand  -0.722676 12.1113 -5.20814
LeftUpLeg  -16.0414 7.30643 2.12559
LeftLeg  15.5521 -5.42286 -1.64701
LeftFoot  2.76333 -0.386593 2.98831
LeftToes  -1.93726e-010 2.42366e-011 2.16268e-013
339
root  62.1891 38.8724 9.25812 -100.081 88.203 -100.216
RightUpLeg  -10.581 -2.96261 -4.01592
RightLeg  16.5785 3.01983 0.719575
RightFoot  -4.61945 -0.308504 4.75792
RightToes  -1.33073e-015 0 -3.6325e-017
Spine  15.78 0.989466 2.61785
Spine1  13.9455 2.27546 -2.75732
HEad  -26.964 1.49587 5.56021
LeftShoulder1  2.15381 -5.19175 -18.1913
LeftArm  -22.9756 -69.4158 -23.9944
LeftForeArm  -15.5569 -6.69339 -6.033
LeftHand  -0.0172475 8.41066 0.984893
RightShoulder  1.18808 5.74355 5.01925
RightArm  -3.95368 70.2065 45.8056
RightForeArm  -29.6174 -5.81184 4.04782
RightHand  -0.617003 13.2345 -4.26937
LeftUpLeg  -15.8708 7.37418 1.87755
LeftLeg  14.5983 -5.4638 -1.65823
LeftFoot  2.90619 -0.444536 3.41558
LeftToes  -1.93726e-010 2.42366e-011 2.16268e-013
340
root  62.4415 38.9937 9.08949 -99.7299 87.7669 -100.219
RightUpLeg  -9.49406 -5.05127 -3.494
RightLeg  14.6124 3.2358 0.55393
RightFoot  -3.5071 -0.274147 3.63126
RightToes  -1.33073e-015 0 -3.6325e-017
Spine  15.7589 0.974348 2.74796
Spine1  14.0726 2.09683 -2.18078
HEad  -27.0443 1.49589 4.99717
LeftShoulder1  2.17337 -5.25873 -18.2282
LeftArm  -23.211 -69.5102 -23.8878
LeftForeArm  -15.8029 -6.41659 -5.9107
LeftHand  -0.0118624 8.20472 1.45132
RightShoulder  1.20542 5.6003 5.46234
RightArm  -3.31219 71.0308 45.044
RightForeArm  -30.2937 -5.93064 4.87729
RightHand  -0.513626 14.1813 -3.48443
LeftUpLeg  -15.3885 7.02868 2.0753
LeftLeg  13.6928 -5.31952 -1.50801
LeftFoot  2.96172 -0.463937 3.55335
LeftToes  -1.93726e-010 2.42366e-011 2.16268e-013
341
root  62.7154 39.0871 9.02881 -104.91 87.4861 -106.123
RightUpLeg  -8.7725 -5.69654 -3.29529
RightLeg  12.4558 3.4213 0.36968
RightFoot  -3.15607 -0.334409 4.37219
RightToes  -1.33073e-015 0 -3.6325e-017
Spine  14.5342 1.17304 1.99953
Spine1  15.5314 1.79062 -0.832232
HEad  -27.7657 1.85534 4.29308
LeftShoulder1  2.14137 -5.15506 -18.1494
LeftArm  -23.9681 -70.0336 -23.8026
LeftForeArm  -15.2411 -6.17789 -5.50256
LeftHand  -0.00413941 7.90313 1.88446
RightShoulder  1.19746 5.79949 5.04559
RightArm  -3.96507 71.2996 44.3561
RightForeArm  -32.1937 -5.89049 5.01744
RightHand  -0.337502 15.2279 -2.35547
LeftUpLeg  -15.3821 6.57108 2.15121
LeftLeg  12.951 -5.13332 -1.35397
LeftFoot  3.08761 -0.493723 3.75184
LeftToes  -1.93726e-010 2.42366e-011 2.16268e-013
342
root  62.7834 39.0945 8.86567 -91.6046 87.5607 -93.1082
RightUpLeg  -8.8197 -6.20257 -3.56097
RightLeg  11.9802 4.49705 0.682191
RightFoot  -2.89471 -0.36336 4.65172
RightToes  -1.33073e-015 0 -3.6325e-017
Spine  15.5363 1.1705 2.60255
Spine1  15.1476 2.20963 -1.83993
HEad  -28.7855 2.4351 3.98104
LeftShoulder1  2.12387 -5.18626 -17.8355
LeftArm  -24.7242 -70.7295 -22.6679
LeftForeArm  -15.5013 -5.50888 -5.59581
LeftHand  -0.0138351 8.02299 1.27839
RightShoulder  1.19461 5.99766 4.70493
RightArm  -5.08832 71.3623 43.5879
RightForeArm  -33.9862 -5.81831 4.9583
RightHand  0.00777229 16.2032 -0.428125
LeftUpLeg  -15.5356 6.51246 1.97051
LeftLeg  12.9847 -4.54684 -1.23031
LeftFoot  3.00504 -0.548442 4.21079
LeftToes  -1.93726e-010 2.42366e-011 2.16268e-013
343
root  62.6824 39.0385 8.75962 -72.1724 87.6543 -74.2743
RightUpLeg  -10.0315 -5.89893 -3.84076
RightLeg  12.4281 5.04993 0.817454
RightFoot  -2.82356 -0.408719 5.22514
RightToes  -1.33073e-015 0 -3.6325e-017
Spine  17.6096 1.42085 2.57022
Spine1  13.3834 2.67855 -2.3874
HEad  -29.8755 2.30354 4.27797
LeftShoulder1  2.12115 -5.20495 -17.7448
LeftArm  -25.6314 -71.2545 -22.0315
LeftForeArm  -15.1954 -5.34287 -5.3717
LeftHand  -0.0146453 8.12546 1.21973
RightShoulder  1.18966 6.03976 4.58584
RightArm  -6.01833 71.6025 42.6479
RightForeArm  -36.0973 -5.76454 5.08835
RightHand  0.396885 16.9668 1.56896
LeftUpLeg  -16.4826 6.41642 1.62158
LeftLeg  13.3808 -3.6529 -1.05323
LeftFoot  2.97939 -0.563768 4.34203
LeftToes  -1.93726e-010 2.42366e-011 2.16268e-013
344
root  62.593 38.9832 8.69579 -55.2451 87.3101 -57.7797
RightUpLeg  -11.1757 -5.43282 -3.83108
RightLeg  13.1365 5.3574 1.00132
RightFoot  -2.38312 -0.42471 5.20939
RightToes  -1.33073e-015 0 -3.6325e-017
Spine  19.5635 1.56361 3.11952
Spine1  12.0316 3.31679 -3.58254
HEad  -30.9931 2.56068 4.00651
LeftShoulder1  2.12089 -5.24581 -17.6189
LeftArm  -27.1557 -72.1341 -20.5785
LeftForeArm  -14.5387 -5.03525 -5.22444
LeftHand  -0.026034 8.84753 0.698668
RightShoulder  1.18287 6.27613 4.16251
RightArm  -6.93156 71.4128 40.8633
RightForeArm  -39.1468 -5.72649 5.52838
RightHand  0.816349 17.7277 3.58497
LeftUpLeg  -17.3892 6.70011 1.59246
LeftLeg  14.0855 -3.17372 -1.00915
LeftFoot  2.77572 -0.562597 4.40611
LeftToes  -1.93726e-010 2.42366e-011 2.16268e-013
345
root  62.603 38.9593 8.70489 -55.8279 87.2022 -58.7893
RightUpLeg  -12.0271 -5.73551 -3.78711
RightLeg  13.916 5.80014 1.33007
RightFoot  -2.36411 -0.449559 5.52384
RightToes  -1.33073e-015 0 -3.6325e-017
Spine  20.4727 1.57361 3.11815
Spine1  11.3977 3.40999 -3.80052
HEad  -31.9746 2.74618 3.93009
LeftShoulder1  2.1077 -5.28 -17.3536
LeftArm  -28.288 -72.5422 -19.9261
LeftForeArm  -14.3145 -4.86733 -4.85208
LeftHand  -0.00976349 8.96321 1.21212
RightShoulder  1.20162 6.49284 4.07903
RightArm  -6.89217 71.4279 40.021
RightForeArm  -42.2275 -5.71405 6.16649
RightHand  1.20646 18.3698 5.36413
LeftUpLeg  -18.0802 6.76453 1.66405
LeftLeg  14.5651 -3.25199 -1.03385
LeftFoot  2.55155 -0.525219 4.17815
LeftToes  -1.93726e-010 2.42366e-011 2.16268e-013
346
root  62.6317 38.9193 8.73707 -56.7161 87.206 -59.8648
RightUpLeg  -13.0708 -5.70381 -3.93809
RightLeg  15.6526 6.30808 1.74985
RightFoot  -2.50033 -0.53579 6.70164
RightToes  -1.33073e-015 0 -3.6325e-017
Spine  21.167 1.65796 2.65605
Spine1  11.0565 3.28599 -3.28114
HEad  -32.6199 2.97265 3.58346
LeftShoulder1  2.09975 -5.21469 -17.4489
LeftArm  -29.7535 -72.9559 -18.6051
LeftForeArm  -13.9015 -4.30037 -4.56837
LeftHand  -0.0100155 9.08667 1.12788
RightShoulder  1.21577 6.8412 3.77545
RightArm  -5.882 72.1878 38.9226
RightForeArm  -43.7061 -5.85017 7.34766
RightHand  1.07142 19.1455 4.52903
LeftUpLeg  -18.4799 6.89316 1.69245
LeftLeg  15.0721 -3.053 -0.980901
LeftFoot  1.9899 -0.441742 3.67805
LeftToes  -1.93726e-010 2.42366e-011 2.16268e-013
347
root  62.6243 38.8737 8.78209 -51.0595 87.2717 -53.9167
RightUpLeg  -14.3943 -6.23236 -4.37082
RightLeg  18.7283 7.91928 2.79573
RightFoot  -2.19084 -0.564188 6.86126
RightToes  -1.33073e-015 0 -3.6325e-017
Spine  22.1479 1.77538 2.11121
Spine1  10.8749 3.29715 -3.09044
HEad  -33.4112 3.65569 2.89262
LeftShoulder1  2.10074 -5.27456 -17.2873
LeftArm  -31.1909 -72.9605 -17.2366
LeftForeArm  -13.7573 -3.92207 -4.26769
LeftHand  -0.0129408 9.08285 0.826214
RightShoulder  1.22677 7.19892 3.44331
RightArm  -12.321 74.0024 39.9015
RightForeArm  -33.7902 -5.57078 3.44922
RightHand  1.08874 19.9252 4.44703
LeftUpLeg  -18.4606 7.14807 1.58447
LeftLeg  15.6975 -3.12149 -1.06689
LeftFoot  1.73651 -0.439231 3.73865
LeftToes  -1.93726e-010 2.42366e-011 2.16268e-013
348
root  62.5836 38.7778 8.86668 -45.1878 87.3876 -48.0252
RightUpLeg  -16.2629 -5.71212 -5.08081
RightLeg  22.3222 9.728 4.15007
RightFoot  -2.26698 -0.720489 8.85106
RightToes  -1.33073e-015 0 -3.6325e-017
Spine  22.6247 1.78868 2.02108
Spine1  11.0446 3.52597 -3.73945
HEad  -34.0266 3.5169 2.5295
LeftShoulder1  2.13192 -5.59127 -16.7499
LeftArm  -32.437 -72.8427 -15.6315
LeftForeArm  -14.4425 -3.76411 -4.21762
LeftHand  -0.0194547 9.19752 0.785923
RightShoulder  1.22527 7.288 3.31971
RightArm  -16.8976 73.2752 39.5401
RightForeArm  -28.868 -5.24741 0.64475
RightHand  0.753998 18.3479 3.13513
LeftUpLeg  -18.9831 7.21034 1.43533
LeftLeg  16.6529 -3.03254 -1.0706
LeftFoot  1.29835 -0.413505 3.66192
LeftToes  -1.93726e-010 2.42366e-011 2.16268e-013
349
root  62.5739 38.7592 8.99247 -46.7757 87.3022 -49.6765
RightUpLeg  -17.5107 -3.19074 -5.48155
RightLeg  24.445 10.4498 4.94115
RightFoot  -2.19502 -0.869164 10.6708
RightToes  -1.33073e-015 0 -3.6325e-017
Spine  22.7076 1.90606 2.25418
Spine1  11.6649 3.6397 -3.43774
HEad  -34.5765 3.72701 1.49415
LeftShoulder1  2.15387 -5.69266 -16.7308
LeftArm  -33.8138 -73.0376 -14.3332
LeftForeArm  -14.3806 -3.68661 -4.00916
LeftHand  -0.0203542 9.07209 0.92295
RightShoulder  1.16769 7.16685 2.85459
RightArm  -22.4322 71.7303 39.499
RightForeArm  -18.8663 -4.88068 -3.10524
RightHand  0.00887416 17.6772 -0.224369
LeftUpLeg  -19.1995 7.91137 1.68373
LeftLeg  16.8938 -3.67412 -1.34038
LeftFoot  1.27277 -0.419123 3.71961
LeftToes  -1.93726e-010 2.42366e-011 2.16268e-013
350
root  62.5435 38.7219 9.18015 -58.258 87.6111 -61.0524
RightUpLeg  -17.8845 0.0381009 -6.14017
RightLeg  24.8254 11.3722 5.48003
RightFoot  -3.50358 -0.837939 11.8122
RightToes  -1.33073e-015 0 -3.6325e-017
Spine  23.3387 1.75502 1.9524
Spine1  11.3392 3.27229 -2.89988
HEad  -34.8224 4.52672 0.671028
LeftShoulder1  2.14252 -5.6893 -16.6081
LeftArm  -34.2827 -72.8103 -13.2927
LeftForeArm  -14.9939 -3.34827 -4.1605
LeftHand  0.00353544 8.3964 1.77377
RightShoulder  1.14821 7.28445 2.51367
RightArm  -20.6123 68.287 38.2074
RightForeArm  -9.98162 -5.19428 -2.85661
RightHand  -1.36878 19.2398 -6.95611
LeftUpLeg  -19.4587 7.8723 1.89126
LeftLeg  17.3506 -4.25089 -1.5037
LeftFoot  1.53612 -0.460127 3.99372
LeftToes  -1.93726e-010 2.42366e-011 2.16268e-013
